<svg xmlns="http://www.w3.org/2000/svg" version="1.1" xmlns:xlink="http://www.w3.org/1999/xlink" xmlns:svgjs="http://svgjs.dev/svgjs" width="100%" height="100%" viewBox="0 0 1000 600"><rect width="1000" height="600" x="0" y="0" fill="#D0FFF9 "/><g><rect width="333.3333333333333" height="333.3333333333333" rx="13.333333333333334" ry="13.333333333333334" y="234.99553624834869" fill="#243665" transform="matrix(0.5874797241063395,0,0,0.5874797241063395,0,64.03160728712861)" x="212.77340698242188"/><path d="M267.5557556291541 476.6621944413558L267.5557556291541 326.86034978080517L300.5619821737879 326.86034978080517Q328.4729078796274 326.86034978080517 341.4376177916705 338.7776922982072Q354.37402047683145 350.69503481560935 354.37402047683145 371.50084657401914L354.37402047683145 371.50084657401914Q354.37402047683145 395.53368219699865 340.3053287163829 408.38516320151297Q326.2366369559344 421.23664420602734 298.52386183827014 421.23664420602734L298.52386183827014 421.23664420602734L290.5695310843747 421.23664420602734L290.5695310843747 476.6621944413558L267.5557556291541 476.6621944413558ZM290.5695310843747 401.0535914390257L299.14662082967834 401.0535914390257Q317.06509544610475 401.0535914390257 324.1985166204167 393.0992606851303Q331.3319377947286 385.1449299312348 331.3319377947286 373.93526808588746L331.3319377947286 373.93526808588746Q331.3319377947286 361.90469666095663 324.396667208592 354.374974310294Q317.4897038493376 346.84525195963147 301.18474116519604 346.84525195963147L301.18474116519604 346.84525195963147L290.5695310843747 346.84525195963147L290.5695310843747 401.0535914390257ZM416.9329918864719 326.6621991926298L419.16926281016487 326.6621991926298L491.32438413286775 476.6621944413558L465.026970359313 476.6621944413558L452.2037965816809 447.30760016452456L383.5021569386052 447.30760016452456L370.678983160973 476.6621944413558L345.20247896700187 476.6621944413558L416.9329918864719 326.6621991926298ZM417.9520520542307 370.05717800302745L408.97866113257635 390.43838135820437L392.67369844843483 426.72824622117224L443.2304056600266 426.72824622117224L427.12359356406034 390.6648391732619L418.3766604574636 370.05717800302745L417.9520520542307 370.05717800302745Z " fill="#8bd8bd" transform="matrix(0.5874797241063395,0,0,0.5874797241063395,0,64.03160728712861)"/><path d="M629.4400715162892 439.42287212830684L629.4400715162892 326.8111629297623L654.2520996579186 326.8111629297623Q675.2337975546995 326.8111629297623 684.9798600665918 335.7698797802134Q694.7046429660126 344.72859663066447 694.7046429660126 360.369111797129L694.7046429660126 360.369111797129Q694.7046429660126 378.43550278533087 684.1286755677365 388.0964468473375Q673.5527081694606 397.7573909093442 652.7199675599793 397.7573909093442L652.7199675599793 397.7573909093442L646.7403964555214 397.7573909093442L646.7403964555214 439.42287212830684L629.4400715162892 439.42287212830684ZM646.7403964555214 382.58502721725006L653.1881190343496 382.58502721725006Q666.6581137287333 382.58502721725006 672.0205760715212 376.6054561127922Q677.383038414309 370.6258850083343 677.383038414309 362.19915846966774L677.383038414309 362.19915846966774Q677.383038414309 353.1553231693311 672.1695333588209 347.49494625194393Q666.977307915804 341.83456933455676 654.7202511322889 341.83456933455676L654.7202511322889 341.83456933455676L646.7403964555214 341.83456933455676L646.7403964555214 382.58502721725006ZM709.1109406091371 439.42287212830684L709.1109406091371 369.0937529103949L725.6451994993995 369.0937529103949L725.6451994993995 382.88294179184936Q728.0923549336082 375.83939006382246 733.6250541761672 371.5409083446037Q739.1364738062547 367.26370623785624 746.1800255342815 367.26370623785624L746.1800255342815 367.26370623785624Q751.074336402699 367.26370623785624 752.9256626877091 368.1787295741256L752.9256626877091 368.1787295741256L750.6274645408 384.8832253641591Q749.2442897301603 383.9682020278898 744.6478934363421 383.9682020278898L744.6478934363421 383.9682020278898Q737.4553844210157 383.9682020278898 731.5396521539718 388.56459832170793Q725.6451994993995 393.160994615526 725.6451994993995 403.26881053943174L725.6451994993995 403.26881053943174L725.6451994993995 439.42287212830684L709.1109406091371 439.42287212830684ZM797.8043653898501 440.9550042262462Q785.2493940317357 440.9550042262462 776.8226674930692 435.9755749079432Q768.3959409544026 430.9961455896402 764.4166534222544 422.65453750085913Q760.4373658901063 414.29164979960666 760.4373658901063 404.3327911630007L760.4373658901063 404.3327911630007Q760.4373658901063 393.160994615526 765.0976010213386 384.73426807685945Q769.7791157650423 376.3075415381929 778.0568850164092 371.77498408178883Q786.3133746553048 367.26370623785624 796.7403847662812 367.26370623785624L796.7403847662812 367.26370623785624Q812.9767290819443 367.26370623785624 820.8714653088264 376.2224230883073Q828.7662015357085 385.18113993875846 828.7662015357085 401.4174842544216L828.7662015357085 401.4174842544216Q828.7662015357085 405.5670086863408 828.2980500613381 410.0144476928593L828.2980500613381 410.0144476928593L777.7376908293385 410.0144476928593Q779.4187802145775 419.3561975677952 784.3982095328805 423.48444238724295Q789.3776388511835 427.63396681916214 798.2725168642205 427.63396681916214L798.2725168642205 427.63396681916214Q805.635262779318 427.63396681916214 810.380616360436 426.3997492958221Q815.1259699415536 425.16553177248204 819.1052574737018 423.037570525344L819.1052574737018 423.037570525344L824.1698052418903 434.8264758344887Q820.3394749970419 437.27363126869744 813.742795130914 439.1249575537075Q807.1673948772574 440.9550042262462 797.8043653898501 440.9550042262462L797.8043653898501 440.9550042262462ZM777.7376908293385 398.5234569583139L812.678814507345 398.5234569583139Q812.8277717946446 389.0114701836069 808.5292900754258 385.1173011013443Q804.2520879686784 381.2018524066103 796.2722332919108 381.2018524066103L796.2722332919108 381.2018524066103Q780.1848462635472 381.2018524066103 777.7376908293385 398.5234569583139L777.7376908293385 398.5234569583139ZM846.3857206620113 476.66219395322236L846.3857206620113 369.0937529103949L862.3241504030752 369.0937529103949L862.3241504030752 382.1168757428797Q870.7508769417418 367.26370623785624 888.668310642644 367.26370623785624L888.668310642644 367.26370623785624Q903.5214801476674 367.26370623785624 912.7142727353038 376.6905745626777Q921.9070653229401 386.0961632750278 921.9070653229401 403.88591930110175L921.9070653229401 403.88591930110175Q921.9070653229401 414.9087585612767 917.3957874790075 423.33548509994336Q912.8845096350748 431.7622116386099 905.1387306954924 436.3586079324281Q897.3929517559098 440.9550042262462 887.9022445936743 440.9550042262462L887.9022445936743 440.9550042262462Q879.0073665806374 440.9550042262462 872.4958051643949 437.80562158048195Q865.9842437481526 434.67751854718904 862.3241504030752 428.8469047300308L862.3241504030752 428.8469047300308L862.4731076903748 476.66219395322236L846.3857206620113 476.66219395322236ZM884.0719143488259 427.01685805749213Q894.0307729854319 427.01685805749213 899.3932353282197 420.6542539285494Q904.7556976710075 414.29164979960666 904.7556976710075 404.3327911630007L904.7556976710075 404.3327911630007Q904.7556976710075 393.92706066449574 899.4783537781052 387.7134138228527Q894.1797302727315 381.49976698120963 884.0719143488259 381.49976698120963L884.0719143488259 381.49976698120963Q878.5604947187384 381.49976698120963 873.7300226877351 384.18099815260354Q868.8995506567318 386.8622293239975 866.0693621980381 391.8416586423005Q863.2391737393446 396.8210879606035 863.2391737393446 403.41776782673134L863.2391737393446 403.41776782673134L863.2391737393446 404.48174845030036Q863.2391737393446 411.0784283164283 866.0693621980381 416.2068149220309Q868.8995506567318 421.33520152763356 873.6449042378496 424.1866695987986Q878.4115374314387 427.01685805749213 884.0719143488259 427.01685805749213L884.0719143488259 427.01685805749213ZM980.1280850446365 326.6622056424626L981.830454042347 326.6622056424626L1036.050906619424 439.42287212830684L1016.3034262459831 439.42287212830684L1006.6424821839763 417.3559139954854L955.0181423284079 417.3559139954854L945.3571982664012 439.42287212830684L926.2055470421589 439.42287212830684L980.1280850446365 326.6622056424626ZM980.8941510936062 359.2838515610886L974.16979355265 374.60517254048244L961.912736769135 401.885635728792L999.8968450305489 401.885635728792L987.7887455343335 374.7754094402535L981.2133452806769 359.2838515610886L980.8941510936062 359.2838515610886ZM1044.4776331580906 439.42287212830684L1044.4776331580906 369.0937529103949L1060.735257086225 369.0937529103949L1060.8842143735246 381.96791845558Q1063.7995212821038 375.54147548922316 1070.0770069611613 371.391951057304Q1076.3544926402183 367.26370623785624 1084.7812191788848 367.26370623785624L1084.7812191788848 367.26370623785624Q1095.6551011517604 367.26370623785624 1101.4857149689183 371.77498408178883Q1107.295049173605 376.3075415381929 1109.295332745915 384.41507388978874Q1111.2956163182248 392.543885853856 1111.2956163182248 405.5670086863408L1111.2956163182248 405.5670086863408L1111.2956163182248 439.42287212830684L1094.7400778154908 439.42287212830684L1094.7400778154908 406.01388054823974Q1094.7400778154908 392.6928431411557 1092.1439650939824 386.79839048658334Q1089.5265727600026 380.903937832011 1081.4190404084068 380.903937832011L1081.4190404084068 380.903937832011Q1076.8226441145887 380.903937832011 1072.0560109209996 383.7341262907046Q1067.3106573398818 386.56431474939814 1064.1825543065888 391.926777092186Q1061.0331716608243 397.2892394349738 1061.0331716608243 404.48174845030036L1061.0331716608243 404.48174845030036L1061.0331716608243 439.42287212830684L1044.4776331580906 439.42287212830684ZM1166.7502864186417 476.194042478852Q1158.940668641645 476.194042478852 1151.3438469893624 474.0448016192426Q1143.7683049495508 471.89556075963316 1140.5550834663727 470.06551408709447L1140.5550834663727 470.06551408709447L1144.2364564239215 454.74419310770065Q1154.344272347827 461.34087297382854 1166.2821349442713 461.34087297382854L1166.2821349442713 461.34087297382854Q1175.4749275319077 461.34087297382854 1181.7736928234362 456.89343396731005Q1188.0511785024933 452.44599496079155 1188.200135789793 439.5718294156065L1188.200135789793 439.5718294156065L1188.200135789793 427.01685805749213Q1184.9869143066148 432.99642916194995 1177.7731256788168 436.9757166940981Q1170.5806166634902 440.9550042262462 1161.8559755502242 440.9550042262462L1161.8559755502242 440.9550042262462Q1152.663182962588 440.9550042262462 1145.002522472891 436.44372638231357Q1137.3418619831941 431.9111689259096 1132.8944229766757 423.48444238724295Q1128.4469839701574 415.0577158485764 1128.4469839701574 403.88591930110175L1128.4469839701574 403.88591930110175Q1128.4469839701574 393.160994615526 1132.6603472394904 384.7981069142736Q1136.873710508824 376.45649882549253 1144.6833282858204 371.8601025316744Q1152.4929460628168 367.26370623785624 1162.9199561737933 367.26370623785624L1162.9199561737933 367.26370623785624Q1169.0484845655508 367.26370623785624 1174.4109469083387 369.41294709746563Q1179.7734092511264 371.5409083446037 1183.5186210460895 374.69029099036794Q1187.2851124535237 377.83967363613226 1188.4980503643924 380.903937832011L1188.4980503643924 380.903937832011L1188.817244551463 369.0937529103949L1204.4364801054562 369.0937529103949L1204.4364801054562 438.9547206539365Q1204.4364801054562 456.89343396731005 1195.24368751782 466.53309841684535Q1186.0508949301839 476.194042478852 1166.7502864186417 476.194042478852L1166.7502864186417 476.194042478852ZM1166.4523718440425 427.01685805749213Q1175.1770129573083 427.01685805749213 1181.1565840617664 420.9521685031487Q1187.136155166224 414.9087585612767 1187.136155166224 405.0988572119704L1187.136155166224 405.0988572119704L1187.136155166224 404.0348765884014Q1187.136155166224 397.4381967222735 1184.3698055449445 392.2246916667853Q1181.6034559236653 387.03246622376855 1176.8581023425472 384.11715931518944Q1172.1127487614294 381.2018524066103 1166.4523718440425 381.2018524066103L1166.4523718440425 381.2018524066103Q1156.6424704947362 381.2018524066103 1151.2800081519483 387.564456535553Q1145.9175458091604 393.92706066449574 1145.9175458091604 404.0348765884014L1145.9175458091604 404.0348765884014Q1145.9175458091604 414.29164979960666 1151.194889702063 420.6542539285494Q1156.4935132074365 427.01685805749213 1166.4523718440425 427.01685805749213L1166.4523718440425 427.01685805749213ZM1249.9535711817389 440.9550042262462Q1235.3983162513146 440.9550042262462 1229.9507354586412 432.37932040027994Q1224.503154665968 423.80363657431366 1224.503154665968 408.48231559491984L1224.503154665968 408.48231559491984L1224.503154665968 369.0937529103949L1241.0586931687017 369.0937529103949L1241.0586931687017 404.3327911630007Q1241.0586931687017 413.07871188873804 1242.0588349548566 417.88790430726993Q1243.0589767410115 422.7183763382733 1246.0381224870048 425.0165744851824Q1249.017268232998 427.31477263209143 1254.996839337456 427.31477263209143L1254.996839337456 427.31477263209143Q1259.2953210566748 427.31477263209143 1263.274608588823 424.8676171978827Q1267.2538961209711 422.420461763674 1269.7861700050653 418.20709849434064Q1272.3184438891594 413.99373522500736 1272.3184438891594 408.92918745681885L1272.3184438891594 408.92918745681885L1272.3184438891594 369.0937529103949L1288.7037454921224 369.0937529103949L1288.7037454921224 439.42287212830684L1275.2337507977386 439.42287212830684L1273.3824245127284 429.1660989171015Q1269.55209426788 435.124390409088 1263.8065989006072 438.0396973176671Q1258.0611035333345 440.9550042262462 1249.9535711817389 440.9550042262462L1249.9535711817389 440.9550042262462ZM1312.1538784355835 439.42287212830684L1312.1538784355835 326.8111629297623L1328.5391800385464 326.8111629297623L1328.5391800385464 439.42287212830684L1312.1538784355835 439.42287212830684ZM1382.9298695153943 440.9550042262462Q1373.4391623531587 440.9550042262462 1365.3954688389772 436.44372638231357Q1357.3517753247952 431.9111689259096 1352.5213032937918 423.5695608371285Q1347.6908312627884 415.20667313587603 1347.6908312627884 404.0348765884014L1347.6908312627884 404.0348765884014Q1347.6908312627884 392.990757715755 1351.904194532122 384.73426807685945Q1356.117557801455 376.45649882549253 1363.9271755784516 371.8601025316744Q1371.7580729679198 367.26370623785624 1382.3127607537244 367.26370623785624L1382.3127607537244 367.26370623785624Q1388.4412891454817 367.26370623785624 1393.8037514882694 369.41294709746563Q1399.1662138310576 371.5409083446037 1402.8475867886063 374.69029099036794Q1406.5289597461551 377.83967363613226 1407.7631772694954 380.903937832011L1407.7631772694954 380.903937832011L1408.0610918440943 369.0937529103949L1423.8505642978585 369.0937529103949L1423.8505642978585 439.42287212830684L1408.210049131394 439.42287212830684L1407.9121345567946 427.01685805749213Q1405.2947422228149 432.52827768757965 1398.400147782088 436.74164095691293Q1391.5055533413606 440.9550042262462 1382.9298695153943 440.9550042262462L1382.9298695153943 440.9550042262462ZM1385.6962191366738 427.1658153447918Q1394.4208602499398 427.1658153447918 1400.4004313543974 421.12240540291975Q1406.3800024588554 415.0577158485764 1406.3800024588554 405.2478144992701L1406.3800024588554 405.2478144992701L1406.3800024588554 404.18383387570105Q1406.3800024588554 397.58715400957317 1403.613652837576 392.39492856655636Q1400.868582828768 387.1814235110682 1396.1019496351787 384.2661166024891Q1391.356596054061 381.35080969391 1385.6962191366738 381.35080969391L1385.6962191366738 381.35080969391Q1375.8863177873673 381.35080969391 1370.5238554445796 387.7134138228527Q1365.1613931017919 394.0760179517954 1365.1613931017919 404.18383387570105L1365.1613931017919 404.18383387570105Q1365.1613931017919 414.44060708690637 1370.438736994694 420.80321121584905Q1375.7373605000676 427.1658153447918 1385.6962191366738 427.1658153447918L1385.6962191366738 427.1658153447918ZM1445.5983282436096 439.42287212830684L1445.5983282436096 369.0937529103949L1462.1538667463433 369.0937529103949L1462.1538667463433 382.88294179184936Q1464.6010221805518 375.83939006382246 1470.1124418106392 371.5409083446037Q1475.6238614407266 367.26370623785624 1482.6674131687537 367.26370623785624L1482.6674131687537 367.26370623785624Q1487.5830036496427 367.26370623785624 1489.4130503221813 368.1787295741256L1489.4130503221813 368.1787295741256L1487.114852175272 384.8832253641591Q1485.7316773646326 383.9682020278898 1481.1352810708145 383.9682020278898L1481.1352810708145 383.9682020278898Q1473.9427720554881 383.9682020278898 1468.0483194009153 388.56459832170793Q1462.1538667463433 393.160994615526 1462.1538667463433 403.26881053943174L1462.1538667463433 403.26881053943174L1462.1538667463433 439.42287212830684L1445.5983282436096 439.42287212830684Z " fill="#243665" transform="matrix(0.5874797241063395,0,0,0.5874797241063395,0,64.03160728712861)"/></g></svg>